%TF.GenerationSoftware,KiCad,Pcbnew,(5.1.9)-1*%
%TF.CreationDate,2021-06-09T13:11:05-04:00*%
%TF.ProjectId,encoder signal conditioner_rev7,656e636f-6465-4722-9073-69676e616c20,rev?*%
%TF.SameCoordinates,Original*%
%TF.FileFunction,Copper,L3,Inr*%
%TF.FilePolarity,Positive*%
%FSLAX46Y46*%
G04 Gerber Fmt 4.6, Leading zero omitted, Abs format (unit mm)*
G04 Created by KiCad (PCBNEW (5.1.9)-1) date 2021-06-09 13:11:05*
%MOMM*%
%LPD*%
G01*
G04 APERTURE LIST*
%TA.AperFunction,ComponentPad*%
%ADD10C,1.900000*%
%TD*%
%TA.AperFunction,ComponentPad*%
%ADD11O,1.740000X2.190000*%
%TD*%
%TA.AperFunction,ComponentPad*%
%ADD12C,2.600000*%
%TD*%
%TA.AperFunction,ComponentPad*%
%ADD13R,2.600000X2.600000*%
%TD*%
%TA.AperFunction,ComponentPad*%
%ADD14C,2.540000*%
%TD*%
%TA.AperFunction,ComponentPad*%
%ADD15C,2.032000*%
%TD*%
%TA.AperFunction,ComponentPad*%
%ADD16C,1.778000*%
%TD*%
%TA.AperFunction,ComponentPad*%
%ADD17R,1.778000X1.778000*%
%TD*%
%TA.AperFunction,ComponentPad*%
%ADD18C,1.700000*%
%TD*%
G04 APERTURE END LIST*
D10*
%TO.N,/5V*%
%TO.C,U1*%
X117829540Y-112530400D03*
X117829540Y-119280400D03*
%TO.N,Net-(U1-PadB15)*%
X119214540Y-115370400D03*
%TO.N,Net-(U1-PadB7)*%
X120599540Y-112530400D03*
%TO.N,/B1*%
X121984540Y-115370400D03*
%TO.N,Net-(R4-Pad2)*%
X123369540Y-112530400D03*
%TO.N,/B2*%
X124754540Y-115370400D03*
%TO.N,Net-(R5-Pad2)*%
X126139540Y-112530400D03*
%TO.N,/B0*%
X127524540Y-115370400D03*
%TO.N,Net-(R6-Pad2)*%
X128909540Y-112530400D03*
%TO.N,Net-(U1-PadB11)*%
X130294540Y-115370400D03*
%TO.N,Net-(U1-PadB3)*%
X131679540Y-112530400D03*
%TO.N,Net-(U1-PadB10)*%
X133064540Y-115370400D03*
%TO.N,Net-(U1-PadB2)*%
X134449540Y-112530400D03*
%TO.N,/DGND*%
X135834540Y-115370400D03*
%TO.N,Net-(U1-PadB1)*%
X137219540Y-112530400D03*
%TO.N,Net-(U1-PadA15)*%
X119214540Y-122120400D03*
%TO.N,Net-(U1-PadA7)*%
X120599540Y-119280400D03*
%TO.N,/A1*%
X121984540Y-122120400D03*
%TO.N,Net-(R1-Pad2)*%
X123369540Y-119280400D03*
%TO.N,/A2*%
X124754540Y-122120400D03*
%TO.N,Net-(R2-Pad2)*%
X126139540Y-119280400D03*
%TO.N,/A0*%
X127524540Y-122120400D03*
%TO.N,Net-(R3-Pad2)*%
X128909540Y-119280400D03*
%TO.N,Net-(U1-PadA11)*%
X130294540Y-122120400D03*
%TO.N,Net-(U1-PadA3)*%
X131679540Y-119280400D03*
%TO.N,Net-(U1-PadA10)*%
X133064540Y-122120400D03*
%TO.N,Net-(U1-PadA2)*%
X134449540Y-119280400D03*
%TO.N,/DGND*%
X135834540Y-122120400D03*
%TO.N,Net-(U1-PadA1)*%
X137219540Y-119280400D03*
%TD*%
D11*
%TO.N,/AI3*%
%TO.C,J2*%
X105008600Y-94714060D03*
%TO.N,/AI2*%
X107548600Y-94714060D03*
%TO.N,/AI1*%
X110088600Y-94714060D03*
%TO.N,/AI0*%
X112628600Y-94714060D03*
%TO.N,/DGND*%
X115168600Y-94714060D03*
%TO.N,/5V*%
%TA.AperFunction,ComponentPad*%
G36*
G01*
X118578600Y-93869059D02*
X118578600Y-95559061D01*
G75*
G02*
X118328601Y-95809060I-249999J0D01*
G01*
X117088599Y-95809060D01*
G75*
G02*
X116838600Y-95559061I0J249999D01*
G01*
X116838600Y-93869059D01*
G75*
G02*
X117088599Y-93619060I249999J0D01*
G01*
X118328601Y-93619060D01*
G75*
G02*
X118578600Y-93869059I0J-249999D01*
G01*
G37*
%TD.AperFunction*%
%TD*%
D12*
%TO.N,/DGND*%
%TO.C,J4*%
X146740880Y-80571340D03*
%TO.N,/AGND*%
X146740880Y-75491340D03*
%TO.N,/3.3V*%
X146740880Y-70411340D03*
D13*
%TO.N,/5V*%
X146740880Y-65331340D03*
%TD*%
D12*
%TO.N,/AO1*%
%TO.C,J5*%
X146740880Y-103164640D03*
%TO.N,/AO0*%
X146740880Y-98084640D03*
%TO.N,/DIO15*%
X146740880Y-93004640D03*
D13*
%TO.N,/DIO0*%
X146740880Y-87924640D03*
%TD*%
D14*
%TO.N,/DGND*%
%TO.C,J1*%
X119227600Y-75565000D03*
X103479600Y-75565000D03*
D15*
%TO.N,Net-(J1-Pad10)*%
X115138200Y-83566000D03*
%TO.N,Net-(J1-Pad9)*%
X117652800Y-83566000D03*
%TO.N,/DGND*%
X107543600Y-83566000D03*
%TO.N,Net-(J1-Pad12)*%
X105029000Y-83566000D03*
D16*
%TO.N,/DAC3_WRITE*%
X115798600Y-70561200D03*
%TO.N,/DAC2_WRITE*%
X114528600Y-73101200D03*
%TO.N,/DAC1_WRITE*%
X113258600Y-70561200D03*
%TO.N,/DAC_CLK*%
X111988600Y-73101200D03*
%TO.N,/CS*%
X110718600Y-70561200D03*
%TO.N,/ADC_CLK*%
X109448600Y-73101200D03*
%TO.N,/ADC_WRITE*%
X108178600Y-70561200D03*
D17*
%TO.N,/ADC_READ*%
X106908600Y-73101200D03*
%TD*%
D18*
%TO.N,/DIO15*%
%TO.C,J3*%
X107231180Y-51358800D03*
%TO.N,/B1*%
X109771180Y-51358800D03*
%TO.N,Net-(J3-Pad30)*%
X112311180Y-51358800D03*
%TO.N,Net-(J3-Pad28)*%
X114851180Y-51358800D03*
%TO.N,/B2*%
X117391180Y-51358800D03*
%TO.N,Net-(J3-Pad24)*%
X119931180Y-51358800D03*
%TO.N,/B0*%
X122471180Y-51358800D03*
%TO.N,Net-(J3-Pad20)*%
X125011180Y-51358800D03*
%TO.N,/A0*%
X127551180Y-51358800D03*
%TO.N,/DGND*%
X130091180Y-51358800D03*
%TO.N,Net-(J3-Pad14)*%
X132631180Y-51358800D03*
%TO.N,Net-(J3-Pad12)*%
X135171180Y-51358800D03*
%TO.N,Net-(J3-Pad10)*%
X137711180Y-51358800D03*
%TO.N,Net-(J3-Pad8)*%
X140251180Y-51358800D03*
%TO.N,/AGND*%
X142791180Y-51358800D03*
%TO.N,/AO1*%
X145331180Y-51358800D03*
%TO.N,/AO0*%
X147871180Y-51358800D03*
%TO.N,/3.3V*%
X107231180Y-53898800D03*
%TO.N,/A1*%
X109771180Y-53898800D03*
%TO.N,/A2*%
X112311180Y-53898800D03*
%TO.N,/DAC3_WRITE*%
X114851180Y-53898800D03*
%TO.N,/DAC2_WRITE*%
X117391180Y-53898800D03*
%TO.N,/DAC1_WRITE*%
X119931180Y-53898800D03*
%TO.N,/DAC_CLK*%
X122471180Y-53898800D03*
%TO.N,/CS*%
X125011180Y-53898800D03*
%TO.N,/ADC_CLK*%
X127551180Y-53898800D03*
%TO.N,/ADC_WRITE*%
X130091180Y-53898800D03*
%TO.N,/ADC_READ*%
X132631180Y-53898800D03*
%TO.N,/DIO0*%
X135171180Y-53898800D03*
%TO.N,/AI3*%
X137711180Y-53898800D03*
%TO.N,/AI2*%
X140251180Y-53898800D03*
%TO.N,/AI1*%
X142791180Y-53898800D03*
%TO.N,/AI0*%
X145331180Y-53898800D03*
%TO.N,/5V*%
%TA.AperFunction,ComponentPad*%
G36*
G01*
X148471180Y-54748800D02*
X147271180Y-54748800D01*
G75*
G02*
X147021180Y-54498800I0J250000D01*
G01*
X147021180Y-53298800D01*
G75*
G02*
X147271180Y-53048800I250000J0D01*
G01*
X148471180Y-53048800D01*
G75*
G02*
X148721180Y-53298800I0J-250000D01*
G01*
X148721180Y-54498800D01*
G75*
G02*
X148471180Y-54748800I-250000J0D01*
G01*
G37*
%TD.AperFunction*%
%TD*%
M02*
