%TF.GenerationSoftware,KiCad,Pcbnew,(5.1.9)-1*%
%TF.CreationDate,2021-06-09T13:11:05-04:00*%
%TF.ProjectId,encoder signal conditioner_rev7,656e636f-6465-4722-9073-69676e616c20,rev?*%
%TF.SameCoordinates,Original*%
%TF.FileFunction,Legend,Bot*%
%TF.FilePolarity,Positive*%
%FSLAX46Y46*%
G04 Gerber Fmt 4.6, Leading zero omitted, Abs format (unit mm)*
G04 Created by KiCad (PCBNEW (5.1.9)-1) date 2021-06-09 13:11:05*
%MOMM*%
%LPD*%
G01*
G04 APERTURE LIST*
%ADD10C,0.225000*%
%ADD11C,0.250000*%
%ADD12C,0.120000*%
%ADD13C,0.150000*%
G04 APERTURE END LIST*
D10*
X139654737Y-56452565D02*
X139526165Y-56495422D01*
X139311880Y-56495422D01*
X139226165Y-56452565D01*
X139183308Y-56409708D01*
X139140451Y-56323994D01*
X139140451Y-56238280D01*
X139183308Y-56152565D01*
X139226165Y-56109708D01*
X139311880Y-56066851D01*
X139483308Y-56023994D01*
X139569022Y-55981137D01*
X139611880Y-55938280D01*
X139654737Y-55852565D01*
X139654737Y-55766851D01*
X139611880Y-55681137D01*
X139569022Y-55638280D01*
X139483308Y-55595422D01*
X139269022Y-55595422D01*
X139140451Y-55638280D01*
X138454737Y-56023994D02*
X138754737Y-56023994D01*
X138754737Y-56495422D02*
X138754737Y-55595422D01*
X138326165Y-55595422D01*
X137983308Y-56495422D02*
X137983308Y-55595422D01*
X137983308Y-56023994D02*
X137469022Y-56023994D01*
X137469022Y-56495422D02*
X137469022Y-55595422D01*
X136569022Y-56495422D02*
X137083308Y-56495422D01*
X136826165Y-56495422D02*
X136826165Y-55595422D01*
X136911880Y-55723994D01*
X136997594Y-55809708D01*
X137083308Y-55852565D01*
X135711880Y-56495422D02*
X136226165Y-56495422D01*
X135969022Y-56495422D02*
X135969022Y-55595422D01*
X136054737Y-55723994D01*
X136140451Y-55809708D01*
X136226165Y-55852565D01*
X135326165Y-56152565D02*
X134640451Y-56152565D01*
X134211880Y-56495422D02*
X134211880Y-55595422D01*
X133869022Y-55595422D01*
X133783308Y-55638280D01*
X133740451Y-55681137D01*
X133697594Y-55766851D01*
X133697594Y-55895422D01*
X133740451Y-55981137D01*
X133783308Y-56023994D01*
X133869022Y-56066851D01*
X134211880Y-56066851D01*
X133011880Y-56023994D02*
X132883308Y-56066851D01*
X132840451Y-56109708D01*
X132797594Y-56195422D01*
X132797594Y-56323994D01*
X132840451Y-56409708D01*
X132883308Y-56452565D01*
X132969022Y-56495422D01*
X133311880Y-56495422D01*
X133311880Y-55595422D01*
X133011880Y-55595422D01*
X132926165Y-55638280D01*
X132883308Y-55681137D01*
X132840451Y-55766851D01*
X132840451Y-55852565D01*
X132883308Y-55938280D01*
X132926165Y-55981137D01*
X133011880Y-56023994D01*
X133311880Y-56023994D01*
X132411880Y-56495422D02*
X132411880Y-55595422D01*
X132069022Y-55595422D01*
X131983308Y-55638280D01*
X131940451Y-55681137D01*
X131897594Y-55766851D01*
X131897594Y-55895422D01*
X131940451Y-55981137D01*
X131983308Y-56023994D01*
X132069022Y-56066851D01*
X132411880Y-56066851D01*
X130997594Y-56409708D02*
X131040451Y-56452565D01*
X131169022Y-56495422D01*
X131254737Y-56495422D01*
X131383308Y-56452565D01*
X131469022Y-56366851D01*
X131511880Y-56281137D01*
X131554737Y-56109708D01*
X131554737Y-55981137D01*
X131511880Y-55809708D01*
X131469022Y-55723994D01*
X131383308Y-55638280D01*
X131254737Y-55595422D01*
X131169022Y-55595422D01*
X131040451Y-55638280D01*
X130997594Y-55681137D01*
X130611880Y-56152565D02*
X129926165Y-56152565D01*
X129497594Y-56495422D02*
X129497594Y-55595422D01*
X129283308Y-55595422D01*
X129154737Y-55638280D01*
X129069022Y-55723994D01*
X129026165Y-55809708D01*
X128983308Y-55981137D01*
X128983308Y-56109708D01*
X129026165Y-56281137D01*
X129069022Y-56366851D01*
X129154737Y-56452565D01*
X129283308Y-56495422D01*
X129497594Y-56495422D01*
X128126165Y-56495422D02*
X128640451Y-56495422D01*
X128383308Y-56495422D02*
X128383308Y-55595422D01*
X128469022Y-55723994D01*
X128554737Y-55809708D01*
X128640451Y-55852565D01*
X127826165Y-55595422D02*
X127226165Y-55595422D01*
X127611880Y-56495422D01*
X126883308Y-56152565D02*
X126197594Y-56152565D01*
X125254737Y-56495422D02*
X125554737Y-56066851D01*
X125769022Y-56495422D02*
X125769022Y-55595422D01*
X125426165Y-55595422D01*
X125340451Y-55638280D01*
X125297594Y-55681137D01*
X125254737Y-55766851D01*
X125254737Y-55895422D01*
X125297594Y-55981137D01*
X125340451Y-56023994D01*
X125426165Y-56066851D01*
X125769022Y-56066851D01*
X124911880Y-56238280D02*
X124483308Y-56238280D01*
X124997594Y-56495422D02*
X124697594Y-55595422D01*
X124397594Y-56495422D01*
X124097594Y-56152565D02*
X123411880Y-56152565D01*
X122683308Y-56023994D02*
X122554737Y-56066851D01*
X122511880Y-56109708D01*
X122469022Y-56195422D01*
X122469022Y-56323994D01*
X122511880Y-56409708D01*
X122554737Y-56452565D01*
X122640451Y-56495422D01*
X122983308Y-56495422D01*
X122983308Y-55595422D01*
X122683308Y-55595422D01*
X122597594Y-55638280D01*
X122554737Y-55681137D01*
X122511880Y-55766851D01*
X122511880Y-55852565D01*
X122554737Y-55938280D01*
X122597594Y-55981137D01*
X122683308Y-56023994D01*
X122983308Y-56023994D01*
X122083308Y-56495422D02*
X122083308Y-55595422D01*
X121569022Y-56495422D02*
X121954737Y-55981137D01*
X121569022Y-55595422D02*
X122083308Y-56109708D01*
D11*
X148147137Y-128608080D02*
X148480470Y-128131890D01*
X148718565Y-128608080D02*
X148718565Y-127608080D01*
X148337613Y-127608080D01*
X148242375Y-127655700D01*
X148194756Y-127703319D01*
X148147137Y-127798557D01*
X148147137Y-127941414D01*
X148194756Y-128036652D01*
X148242375Y-128084271D01*
X148337613Y-128131890D01*
X148718565Y-128131890D01*
X147718565Y-128084271D02*
X147385232Y-128084271D01*
X147242375Y-128608080D02*
X147718565Y-128608080D01*
X147718565Y-127608080D01*
X147242375Y-127608080D01*
X146956660Y-127608080D02*
X146623327Y-128608080D01*
X146289994Y-127608080D01*
X145289994Y-127608080D02*
X144623327Y-127608080D01*
X145051899Y-128608080D01*
X144242375Y-128512842D02*
X144194756Y-128560461D01*
X144242375Y-128608080D01*
X144289994Y-128560461D01*
X144242375Y-128512842D01*
X144242375Y-128608080D01*
X143242375Y-128608080D02*
X143813803Y-128608080D01*
X143528089Y-128608080D02*
X143528089Y-127608080D01*
X143623327Y-127750938D01*
X143718565Y-127846176D01*
X143813803Y-127893795D01*
X123732156Y-128543322D02*
X123779775Y-128590941D01*
X123922632Y-128638560D01*
X124017870Y-128638560D01*
X124160727Y-128590941D01*
X124255965Y-128495703D01*
X124303584Y-128400465D01*
X124351203Y-128209989D01*
X124351203Y-128067132D01*
X124303584Y-127876656D01*
X124255965Y-127781418D01*
X124160727Y-127686180D01*
X124017870Y-127638560D01*
X123922632Y-127638560D01*
X123779775Y-127686180D01*
X123732156Y-127733799D01*
X122732156Y-128638560D02*
X123065489Y-128162370D01*
X123303584Y-128638560D02*
X123303584Y-127638560D01*
X122922632Y-127638560D01*
X122827394Y-127686180D01*
X122779775Y-127733799D01*
X122732156Y-127829037D01*
X122732156Y-127971894D01*
X122779775Y-128067132D01*
X122827394Y-128114751D01*
X122922632Y-128162370D01*
X123303584Y-128162370D01*
X122303584Y-128114751D02*
X121970251Y-128114751D01*
X121827394Y-128638560D02*
X122303584Y-128638560D01*
X122303584Y-127638560D01*
X121827394Y-127638560D01*
X121446441Y-128352846D02*
X120970251Y-128352846D01*
X121541680Y-128638560D02*
X121208346Y-127638560D01*
X120875013Y-128638560D01*
X120684537Y-127638560D02*
X120113108Y-127638560D01*
X120398822Y-128638560D02*
X120398822Y-127638560D01*
X119779775Y-128114751D02*
X119446441Y-128114751D01*
X119303584Y-128638560D02*
X119779775Y-128638560D01*
X119779775Y-127638560D01*
X119303584Y-127638560D01*
X118875013Y-128638560D02*
X118875013Y-127638560D01*
X118636918Y-127638560D01*
X118494060Y-127686180D01*
X118398822Y-127781418D01*
X118351203Y-127876656D01*
X118303584Y-128067132D01*
X118303584Y-128209989D01*
X118351203Y-128400465D01*
X118398822Y-128495703D01*
X118494060Y-128590941D01*
X118636918Y-128638560D01*
X118875013Y-128638560D01*
X116779775Y-128114751D02*
X116636918Y-128162370D01*
X116589299Y-128209989D01*
X116541680Y-128305227D01*
X116541680Y-128448084D01*
X116589299Y-128543322D01*
X116636918Y-128590941D01*
X116732156Y-128638560D01*
X117113108Y-128638560D01*
X117113108Y-127638560D01*
X116779775Y-127638560D01*
X116684537Y-127686180D01*
X116636918Y-127733799D01*
X116589299Y-127829037D01*
X116589299Y-127924275D01*
X116636918Y-128019513D01*
X116684537Y-128067132D01*
X116779775Y-128114751D01*
X117113108Y-128114751D01*
X115922632Y-128162370D02*
X115922632Y-128638560D01*
X116255965Y-127638560D02*
X115922632Y-128162370D01*
X115589299Y-127638560D01*
X114208346Y-127638560D02*
X114208346Y-128352846D01*
X114255965Y-128495703D01*
X114351203Y-128590941D01*
X114494060Y-128638560D01*
X114589299Y-128638560D01*
X113779775Y-128352846D02*
X113303584Y-128352846D01*
X113875013Y-128638560D02*
X113541680Y-127638560D01*
X113208346Y-128638560D01*
X112303584Y-128543322D02*
X112351203Y-128590941D01*
X112494060Y-128638560D01*
X112589299Y-128638560D01*
X112732156Y-128590941D01*
X112827394Y-128495703D01*
X112875013Y-128400465D01*
X112922632Y-128209989D01*
X112922632Y-128067132D01*
X112875013Y-127876656D01*
X112827394Y-127781418D01*
X112732156Y-127686180D01*
X112589299Y-127638560D01*
X112494060Y-127638560D01*
X112351203Y-127686180D01*
X112303584Y-127733799D01*
X111684537Y-127638560D02*
X111494060Y-127638560D01*
X111398822Y-127686180D01*
X111303584Y-127781418D01*
X111255965Y-127971894D01*
X111255965Y-128305227D01*
X111303584Y-128495703D01*
X111398822Y-128590941D01*
X111494060Y-128638560D01*
X111684537Y-128638560D01*
X111779775Y-128590941D01*
X111875013Y-128495703D01*
X111922632Y-128305227D01*
X111922632Y-127971894D01*
X111875013Y-127781418D01*
X111779775Y-127686180D01*
X111684537Y-127638560D01*
X110494060Y-128114751D02*
X110351203Y-128162370D01*
X110303584Y-128209989D01*
X110255965Y-128305227D01*
X110255965Y-128448084D01*
X110303584Y-128543322D01*
X110351203Y-128590941D01*
X110446441Y-128638560D01*
X110827394Y-128638560D01*
X110827394Y-127638560D01*
X110494060Y-127638560D01*
X110398822Y-127686180D01*
X110351203Y-127733799D01*
X110303584Y-127829037D01*
X110303584Y-127924275D01*
X110351203Y-128019513D01*
X110398822Y-128067132D01*
X110494060Y-128114751D01*
X110827394Y-128114751D01*
X108494060Y-128543322D02*
X108541680Y-128590941D01*
X108684537Y-128638560D01*
X108779775Y-128638560D01*
X108922632Y-128590941D01*
X109017870Y-128495703D01*
X109065489Y-128400465D01*
X109113108Y-128209989D01*
X109113108Y-128067132D01*
X109065489Y-127876656D01*
X109017870Y-127781418D01*
X108922632Y-127686180D01*
X108779775Y-127638560D01*
X108684537Y-127638560D01*
X108541680Y-127686180D01*
X108494060Y-127733799D01*
X107875013Y-127638560D02*
X107684537Y-127638560D01*
X107589299Y-127686180D01*
X107494060Y-127781418D01*
X107446441Y-127971894D01*
X107446441Y-128305227D01*
X107494060Y-128495703D01*
X107589299Y-128590941D01*
X107684537Y-128638560D01*
X107875013Y-128638560D01*
X107970251Y-128590941D01*
X108065489Y-128495703D01*
X108113108Y-128305227D01*
X108113108Y-127971894D01*
X108065489Y-127781418D01*
X107970251Y-127686180D01*
X107875013Y-127638560D01*
X106541680Y-128638560D02*
X107017870Y-128638560D01*
X107017870Y-127638560D01*
X106208346Y-128114751D02*
X105875013Y-128114751D01*
X105732156Y-128638560D02*
X106208346Y-128638560D01*
X106208346Y-127638560D01*
X105732156Y-127638560D01*
D12*
%TO.C,120*%
X122279516Y-97492140D02*
X123733644Y-97492140D01*
X122279516Y-99312140D02*
X123733644Y-99312140D01*
X127850006Y-99312140D02*
X129304134Y-99312140D01*
X127850006Y-97492140D02*
X129304134Y-97492140D01*
X133420496Y-99312140D02*
X134874624Y-99312140D01*
X133420496Y-97492140D02*
X134874624Y-97492140D01*
D13*
X123673246Y-100674520D02*
X124244675Y-100674520D01*
X123958960Y-100674520D02*
X123958960Y-99674520D01*
X124054199Y-99817378D01*
X124149437Y-99912616D01*
X124244675Y-99960235D01*
X123292294Y-99769759D02*
X123244675Y-99722140D01*
X123149437Y-99674520D01*
X122911341Y-99674520D01*
X122816103Y-99722140D01*
X122768484Y-99769759D01*
X122720865Y-99864997D01*
X122720865Y-99960235D01*
X122768484Y-100103092D01*
X123339913Y-100674520D01*
X122720865Y-100674520D01*
X122101818Y-99674520D02*
X122006580Y-99674520D01*
X121911341Y-99722140D01*
X121863722Y-99769759D01*
X121816103Y-99864997D01*
X121768484Y-100055473D01*
X121768484Y-100293568D01*
X121816103Y-100484044D01*
X121863722Y-100579282D01*
X121911341Y-100626901D01*
X122006580Y-100674520D01*
X122101818Y-100674520D01*
X122197056Y-100626901D01*
X122244675Y-100579282D01*
X122292294Y-100484044D01*
X122339913Y-100293568D01*
X122339913Y-100055473D01*
X122292294Y-99864997D01*
X122244675Y-99769759D01*
X122197056Y-99722140D01*
X122101818Y-99674520D01*
X129243736Y-100674520D02*
X129815165Y-100674520D01*
X129529450Y-100674520D02*
X129529450Y-99674520D01*
X129624689Y-99817378D01*
X129719927Y-99912616D01*
X129815165Y-99960235D01*
X128862784Y-99769759D02*
X128815165Y-99722140D01*
X128719927Y-99674520D01*
X128481831Y-99674520D01*
X128386593Y-99722140D01*
X128338974Y-99769759D01*
X128291355Y-99864997D01*
X128291355Y-99960235D01*
X128338974Y-100103092D01*
X128910403Y-100674520D01*
X128291355Y-100674520D01*
X127672308Y-99674520D02*
X127577070Y-99674520D01*
X127481831Y-99722140D01*
X127434212Y-99769759D01*
X127386593Y-99864997D01*
X127338974Y-100055473D01*
X127338974Y-100293568D01*
X127386593Y-100484044D01*
X127434212Y-100579282D01*
X127481831Y-100626901D01*
X127577070Y-100674520D01*
X127672308Y-100674520D01*
X127767546Y-100626901D01*
X127815165Y-100579282D01*
X127862784Y-100484044D01*
X127910403Y-100293568D01*
X127910403Y-100055473D01*
X127862784Y-99864997D01*
X127815165Y-99769759D01*
X127767546Y-99722140D01*
X127672308Y-99674520D01*
X134814226Y-100674520D02*
X135385655Y-100674520D01*
X135099940Y-100674520D02*
X135099940Y-99674520D01*
X135195179Y-99817378D01*
X135290417Y-99912616D01*
X135385655Y-99960235D01*
X134433274Y-99769759D02*
X134385655Y-99722140D01*
X134290417Y-99674520D01*
X134052321Y-99674520D01*
X133957083Y-99722140D01*
X133909464Y-99769759D01*
X133861845Y-99864997D01*
X133861845Y-99960235D01*
X133909464Y-100103092D01*
X134480893Y-100674520D01*
X133861845Y-100674520D01*
X133242798Y-99674520D02*
X133147560Y-99674520D01*
X133052321Y-99722140D01*
X133004702Y-99769759D01*
X132957083Y-99864997D01*
X132909464Y-100055473D01*
X132909464Y-100293568D01*
X132957083Y-100484044D01*
X133004702Y-100579282D01*
X133052321Y-100626901D01*
X133147560Y-100674520D01*
X133242798Y-100674520D01*
X133338036Y-100626901D01*
X133385655Y-100579282D01*
X133433274Y-100484044D01*
X133480893Y-100293568D01*
X133480893Y-100055473D01*
X133433274Y-99864997D01*
X133385655Y-99769759D01*
X133338036Y-99722140D01*
X133242798Y-99674520D01*
%TD*%
M02*
