%TF.GenerationSoftware,KiCad,Pcbnew,(5.1.9)-1*%
%TF.CreationDate,2021-06-09T13:11:05-04:00*%
%TF.ProjectId,encoder signal conditioner_rev7,656e636f-6465-4722-9073-69676e616c20,rev?*%
%TF.SameCoordinates,Original*%
%TF.FileFunction,Copper,L4,Bot*%
%TF.FilePolarity,Positive*%
%FSLAX46Y46*%
G04 Gerber Fmt 4.6, Leading zero omitted, Abs format (unit mm)*
G04 Created by KiCad (PCBNEW (5.1.9)-1) date 2021-06-09 13:11:05*
%MOMM*%
%LPD*%
G01*
G04 APERTURE LIST*
%TA.AperFunction,ComponentPad*%
%ADD10C,1.900000*%
%TD*%
%TA.AperFunction,ComponentPad*%
%ADD11O,1.740000X2.190000*%
%TD*%
%TA.AperFunction,ComponentPad*%
%ADD12C,2.600000*%
%TD*%
%TA.AperFunction,ComponentPad*%
%ADD13R,2.600000X2.600000*%
%TD*%
%TA.AperFunction,ComponentPad*%
%ADD14C,2.540000*%
%TD*%
%TA.AperFunction,ComponentPad*%
%ADD15C,2.032000*%
%TD*%
%TA.AperFunction,ComponentPad*%
%ADD16C,1.778000*%
%TD*%
%TA.AperFunction,ComponentPad*%
%ADD17R,1.778000X1.778000*%
%TD*%
%TA.AperFunction,ComponentPad*%
%ADD18C,1.700000*%
%TD*%
%TA.AperFunction,Conductor*%
%ADD19C,0.250000*%
%TD*%
G04 APERTURE END LIST*
D10*
%TO.P,U1,B8*%
%TO.N,/5V*%
X117829540Y-112530400D03*
%TO.P,U1,A8*%
X117829540Y-119280400D03*
%TO.P,U1,B15*%
%TO.N,Net-(U1-PadB15)*%
X119214540Y-115370400D03*
%TO.P,U1,B7*%
%TO.N,Net-(U1-PadB7)*%
X120599540Y-112530400D03*
%TO.P,U1,B14*%
%TO.N,/B1*%
X121984540Y-115370400D03*
%TO.P,U1,B6*%
%TO.N,Net-(R4-Pad2)*%
X123369540Y-112530400D03*
%TO.P,U1,B13*%
%TO.N,/B2*%
X124754540Y-115370400D03*
%TO.P,U1,B5*%
%TO.N,Net-(R5-Pad2)*%
X126139540Y-112530400D03*
%TO.P,U1,B12*%
%TO.N,/B0*%
X127524540Y-115370400D03*
%TO.P,U1,B4*%
%TO.N,Net-(R6-Pad2)*%
X128909540Y-112530400D03*
%TO.P,U1,B11*%
%TO.N,Net-(U1-PadB11)*%
X130294540Y-115370400D03*
%TO.P,U1,B3*%
%TO.N,Net-(U1-PadB3)*%
X131679540Y-112530400D03*
%TO.P,U1,B10*%
%TO.N,Net-(U1-PadB10)*%
X133064540Y-115370400D03*
%TO.P,U1,B2*%
%TO.N,Net-(U1-PadB2)*%
X134449540Y-112530400D03*
%TO.P,U1,B9*%
%TO.N,/DGND*%
X135834540Y-115370400D03*
%TO.P,U1,B1*%
%TO.N,Net-(U1-PadB1)*%
X137219540Y-112530400D03*
%TO.P,U1,A15*%
%TO.N,Net-(U1-PadA15)*%
X119214540Y-122120400D03*
%TO.P,U1,A7*%
%TO.N,Net-(U1-PadA7)*%
X120599540Y-119280400D03*
%TO.P,U1,A14*%
%TO.N,/A1*%
X121984540Y-122120400D03*
%TO.P,U1,A6*%
%TO.N,Net-(R1-Pad2)*%
X123369540Y-119280400D03*
%TO.P,U1,A13*%
%TO.N,/A2*%
X124754540Y-122120400D03*
%TO.P,U1,A5*%
%TO.N,Net-(R2-Pad2)*%
X126139540Y-119280400D03*
%TO.P,U1,A12*%
%TO.N,/A0*%
X127524540Y-122120400D03*
%TO.P,U1,A4*%
%TO.N,Net-(R3-Pad2)*%
X128909540Y-119280400D03*
%TO.P,U1,A11*%
%TO.N,Net-(U1-PadA11)*%
X130294540Y-122120400D03*
%TO.P,U1,A3*%
%TO.N,Net-(U1-PadA3)*%
X131679540Y-119280400D03*
%TO.P,U1,A10*%
%TO.N,Net-(U1-PadA10)*%
X133064540Y-122120400D03*
%TO.P,U1,A2*%
%TO.N,Net-(U1-PadA2)*%
X134449540Y-119280400D03*
%TO.P,U1,A9*%
%TO.N,/DGND*%
X135834540Y-122120400D03*
%TO.P,U1,A1*%
%TO.N,Net-(U1-PadA1)*%
X137219540Y-119280400D03*
%TD*%
D11*
%TO.P,J2,6*%
%TO.N,/AI3*%
X105008600Y-94714060D03*
%TO.P,J2,5*%
%TO.N,/AI2*%
X107548600Y-94714060D03*
%TO.P,J2,4*%
%TO.N,/AI1*%
X110088600Y-94714060D03*
%TO.P,J2,3*%
%TO.N,/AI0*%
X112628600Y-94714060D03*
%TO.P,J2,2*%
%TO.N,/DGND*%
X115168600Y-94714060D03*
%TO.P,J2,1*%
%TO.N,/5V*%
%TA.AperFunction,ComponentPad*%
G36*
G01*
X118578600Y-93869059D02*
X118578600Y-95559061D01*
G75*
G02*
X118328601Y-95809060I-249999J0D01*
G01*
X117088599Y-95809060D01*
G75*
G02*
X116838600Y-95559061I0J249999D01*
G01*
X116838600Y-93869059D01*
G75*
G02*
X117088599Y-93619060I249999J0D01*
G01*
X118328601Y-93619060D01*
G75*
G02*
X118578600Y-93869059I0J-249999D01*
G01*
G37*
%TD.AperFunction*%
%TD*%
D12*
%TO.P,J4,4*%
%TO.N,/DGND*%
X146740880Y-80571340D03*
%TO.P,J4,3*%
%TO.N,/AGND*%
X146740880Y-75491340D03*
%TO.P,J4,2*%
%TO.N,/3.3V*%
X146740880Y-70411340D03*
D13*
%TO.P,J4,1*%
%TO.N,/5V*%
X146740880Y-65331340D03*
%TD*%
D12*
%TO.P,J5,4*%
%TO.N,/AO1*%
X146740880Y-103164640D03*
%TO.P,J5,3*%
%TO.N,/AO0*%
X146740880Y-98084640D03*
%TO.P,J5,2*%
%TO.N,/DIO15*%
X146740880Y-93004640D03*
D13*
%TO.P,J5,1*%
%TO.N,/DIO0*%
X146740880Y-87924640D03*
%TD*%
%TO.P,120,1*%
%TO.N,/A1*%
%TA.AperFunction,SMDPad,CuDef*%
G36*
G01*
X120981580Y-99027142D02*
X120981580Y-97777138D01*
G75*
G02*
X121231578Y-97527140I249998J0D01*
G01*
X121856582Y-97527140D01*
G75*
G02*
X122106580Y-97777138I0J-249998D01*
G01*
X122106580Y-99027142D01*
G75*
G02*
X121856582Y-99277140I-249998J0D01*
G01*
X121231578Y-99277140D01*
G75*
G02*
X120981580Y-99027142I0J249998D01*
G01*
G37*
%TD.AperFunction*%
%TO.P,120,2*%
%TO.N,Net-(R1-Pad2)*%
%TA.AperFunction,SMDPad,CuDef*%
G36*
G01*
X123906580Y-99027142D02*
X123906580Y-97777138D01*
G75*
G02*
X124156578Y-97527140I249998J0D01*
G01*
X124781582Y-97527140D01*
G75*
G02*
X125031580Y-97777138I0J-249998D01*
G01*
X125031580Y-99027142D01*
G75*
G02*
X124781582Y-99277140I-249998J0D01*
G01*
X124156578Y-99277140D01*
G75*
G02*
X123906580Y-99027142I0J249998D01*
G01*
G37*
%TD.AperFunction*%
%TD*%
%TO.P,120,2*%
%TO.N,Net-(R2-Pad2)*%
%TA.AperFunction,SMDPad,CuDef*%
G36*
G01*
X129477070Y-99027142D02*
X129477070Y-97777138D01*
G75*
G02*
X129727068Y-97527140I249998J0D01*
G01*
X130352072Y-97527140D01*
G75*
G02*
X130602070Y-97777138I0J-249998D01*
G01*
X130602070Y-99027142D01*
G75*
G02*
X130352072Y-99277140I-249998J0D01*
G01*
X129727068Y-99277140D01*
G75*
G02*
X129477070Y-99027142I0J249998D01*
G01*
G37*
%TD.AperFunction*%
%TO.P,120,1*%
%TO.N,/A2*%
%TA.AperFunction,SMDPad,CuDef*%
G36*
G01*
X126552070Y-99027142D02*
X126552070Y-97777138D01*
G75*
G02*
X126802068Y-97527140I249998J0D01*
G01*
X127427072Y-97527140D01*
G75*
G02*
X127677070Y-97777138I0J-249998D01*
G01*
X127677070Y-99027142D01*
G75*
G02*
X127427072Y-99277140I-249998J0D01*
G01*
X126802068Y-99277140D01*
G75*
G02*
X126552070Y-99027142I0J249998D01*
G01*
G37*
%TD.AperFunction*%
%TD*%
%TO.P,120,2*%
%TO.N,Net-(R3-Pad2)*%
%TA.AperFunction,SMDPad,CuDef*%
G36*
G01*
X135047560Y-99027142D02*
X135047560Y-97777138D01*
G75*
G02*
X135297558Y-97527140I249998J0D01*
G01*
X135922562Y-97527140D01*
G75*
G02*
X136172560Y-97777138I0J-249998D01*
G01*
X136172560Y-99027142D01*
G75*
G02*
X135922562Y-99277140I-249998J0D01*
G01*
X135297558Y-99277140D01*
G75*
G02*
X135047560Y-99027142I0J249998D01*
G01*
G37*
%TD.AperFunction*%
%TO.P,120,1*%
%TO.N,/A0*%
%TA.AperFunction,SMDPad,CuDef*%
G36*
G01*
X132122560Y-99027142D02*
X132122560Y-97777138D01*
G75*
G02*
X132372558Y-97527140I249998J0D01*
G01*
X132997562Y-97527140D01*
G75*
G02*
X133247560Y-97777138I0J-249998D01*
G01*
X133247560Y-99027142D01*
G75*
G02*
X132997562Y-99277140I-249998J0D01*
G01*
X132372558Y-99277140D01*
G75*
G02*
X132122560Y-99027142I0J249998D01*
G01*
G37*
%TD.AperFunction*%
%TD*%
D14*
%TO.P,J1,SH*%
%TO.N,/DGND*%
X119227600Y-75565000D03*
X103479600Y-75565000D03*
D15*
%TO.P,J1,10*%
%TO.N,Net-(J1-Pad10)*%
X115138200Y-83566000D03*
%TO.P,J1,9*%
%TO.N,Net-(J1-Pad9)*%
X117652800Y-83566000D03*
%TO.P,J1,11*%
%TO.N,/DGND*%
X107543600Y-83566000D03*
%TO.P,J1,12*%
%TO.N,Net-(J1-Pad12)*%
X105029000Y-83566000D03*
D16*
%TO.P,J1,8*%
%TO.N,/DAC3_WRITE*%
X115798600Y-70561200D03*
%TO.P,J1,7*%
%TO.N,/DAC2_WRITE*%
X114528600Y-73101200D03*
%TO.P,J1,6*%
%TO.N,/DAC1_WRITE*%
X113258600Y-70561200D03*
%TO.P,J1,5*%
%TO.N,/DAC_CLK*%
X111988600Y-73101200D03*
%TO.P,J1,4*%
%TO.N,/CS*%
X110718600Y-70561200D03*
%TO.P,J1,3*%
%TO.N,/ADC_CLK*%
X109448600Y-73101200D03*
%TO.P,J1,2*%
%TO.N,/ADC_WRITE*%
X108178600Y-70561200D03*
D17*
%TO.P,J1,1*%
%TO.N,/ADC_READ*%
X106908600Y-73101200D03*
%TD*%
D18*
%TO.P,J3,34*%
%TO.N,/DIO15*%
X107231180Y-51358800D03*
%TO.P,J3,32*%
%TO.N,/B1*%
X109771180Y-51358800D03*
%TO.P,J3,30*%
%TO.N,Net-(J3-Pad30)*%
X112311180Y-51358800D03*
%TO.P,J3,28*%
%TO.N,Net-(J3-Pad28)*%
X114851180Y-51358800D03*
%TO.P,J3,26*%
%TO.N,/B2*%
X117391180Y-51358800D03*
%TO.P,J3,24*%
%TO.N,Net-(J3-Pad24)*%
X119931180Y-51358800D03*
%TO.P,J3,22*%
%TO.N,/B0*%
X122471180Y-51358800D03*
%TO.P,J3,20*%
%TO.N,Net-(J3-Pad20)*%
X125011180Y-51358800D03*
%TO.P,J3,18*%
%TO.N,/A0*%
X127551180Y-51358800D03*
%TO.P,J3,16*%
%TO.N,/DGND*%
X130091180Y-51358800D03*
%TO.P,J3,14*%
%TO.N,Net-(J3-Pad14)*%
X132631180Y-51358800D03*
%TO.P,J3,12*%
%TO.N,Net-(J3-Pad12)*%
X135171180Y-51358800D03*
%TO.P,J3,10*%
%TO.N,Net-(J3-Pad10)*%
X137711180Y-51358800D03*
%TO.P,J3,8*%
%TO.N,Net-(J3-Pad8)*%
X140251180Y-51358800D03*
%TO.P,J3,6*%
%TO.N,/AGND*%
X142791180Y-51358800D03*
%TO.P,J3,4*%
%TO.N,/AO1*%
X145331180Y-51358800D03*
%TO.P,J3,2*%
%TO.N,/AO0*%
X147871180Y-51358800D03*
%TO.P,J3,33*%
%TO.N,/3.3V*%
X107231180Y-53898800D03*
%TO.P,J3,31*%
%TO.N,/A1*%
X109771180Y-53898800D03*
%TO.P,J3,29*%
%TO.N,/A2*%
X112311180Y-53898800D03*
%TO.P,J3,27*%
%TO.N,/DAC3_WRITE*%
X114851180Y-53898800D03*
%TO.P,J3,25*%
%TO.N,/DAC2_WRITE*%
X117391180Y-53898800D03*
%TO.P,J3,23*%
%TO.N,/DAC1_WRITE*%
X119931180Y-53898800D03*
%TO.P,J3,21*%
%TO.N,/DAC_CLK*%
X122471180Y-53898800D03*
%TO.P,J3,19*%
%TO.N,/CS*%
X125011180Y-53898800D03*
%TO.P,J3,17*%
%TO.N,/ADC_CLK*%
X127551180Y-53898800D03*
%TO.P,J3,15*%
%TO.N,/ADC_WRITE*%
X130091180Y-53898800D03*
%TO.P,J3,13*%
%TO.N,/ADC_READ*%
X132631180Y-53898800D03*
%TO.P,J3,11*%
%TO.N,/DIO0*%
X135171180Y-53898800D03*
%TO.P,J3,9*%
%TO.N,/AI3*%
X137711180Y-53898800D03*
%TO.P,J3,7*%
%TO.N,/AI2*%
X140251180Y-53898800D03*
%TO.P,J3,5*%
%TO.N,/AI1*%
X142791180Y-53898800D03*
%TO.P,J3,3*%
%TO.N,/AI0*%
X145331180Y-53898800D03*
%TO.P,J3,1*%
%TO.N,/5V*%
%TA.AperFunction,ComponentPad*%
G36*
G01*
X148471180Y-54748800D02*
X147271180Y-54748800D01*
G75*
G02*
X147021180Y-54498800I0J250000D01*
G01*
X147021180Y-53298800D01*
G75*
G02*
X147271180Y-53048800I250000J0D01*
G01*
X148471180Y-53048800D01*
G75*
G02*
X148721180Y-53298800I0J-250000D01*
G01*
X148721180Y-54498800D01*
G75*
G02*
X148471180Y-54748800I-250000J0D01*
G01*
G37*
%TD.AperFunction*%
%TD*%
D19*
%TO.N,/DGND*%
X131456179Y-65286639D02*
X146740880Y-80571340D01*
X131456179Y-52723799D02*
X131456179Y-65286639D01*
X130091180Y-51358800D02*
X131456179Y-52723799D01*
X119227600Y-75565000D02*
X103479600Y-75565000D01*
X135834540Y-124023540D02*
X135834540Y-122120400D01*
X135834540Y-125191100D02*
X135834540Y-124023540D01*
X135089900Y-125935740D02*
X135834540Y-125191100D01*
X117393720Y-125935740D02*
X135089900Y-125935740D01*
X115204512Y-111359198D02*
X115204512Y-123746532D01*
X115204512Y-123746532D02*
X117393720Y-125935740D01*
X119227600Y-107336110D02*
X115204512Y-111359198D01*
X119227600Y-75565000D02*
X119227600Y-107336110D01*
%TO.N,/DIO15*%
X100639880Y-53728620D02*
X103009700Y-51358800D01*
X100639881Y-121523761D02*
X100639880Y-119783860D01*
X106039920Y-126923800D02*
X100639881Y-121523761D01*
X100639880Y-119783860D02*
X100639880Y-53728620D01*
X144442180Y-126923800D02*
X106039920Y-126923800D01*
X148365880Y-123000100D02*
X144442180Y-126923800D01*
X103009700Y-51358800D02*
X107231180Y-51358800D01*
X148365881Y-102384639D02*
X148365880Y-123000100D01*
X145115879Y-99134637D02*
X148365881Y-102384639D01*
X145115879Y-94629641D02*
X145115879Y-99134637D01*
X146740880Y-93004640D02*
X145115879Y-94629641D01*
%TO.N,/A0*%
X128916179Y-94633259D02*
X132685060Y-98402140D01*
X128916179Y-53524797D02*
X128916179Y-94633259D01*
X127551180Y-52159798D02*
X128916179Y-53524797D01*
X127551180Y-51358800D02*
X127551180Y-52159798D01*
X127524540Y-117687060D02*
X127524540Y-122120400D01*
X127954610Y-117256990D02*
X127524540Y-117687060D01*
X136471363Y-117256989D02*
X127954610Y-117256990D01*
X139001930Y-114726422D02*
X136471363Y-117256989D01*
X137206822Y-109994270D02*
X139001929Y-111789377D01*
X133337730Y-109994270D02*
X137206822Y-109994270D01*
X132684520Y-109341060D02*
X133337730Y-109994270D01*
X132684520Y-98402680D02*
X132684520Y-109341060D01*
X139001929Y-111789377D02*
X139001930Y-114726422D01*
X132685060Y-98402140D02*
X132684520Y-98402680D01*
%TO.N,/AGND*%
X143966181Y-52533801D02*
X142791180Y-51358800D01*
X143966181Y-72716641D02*
X143966181Y-52533801D01*
X146740880Y-75491340D02*
X143966181Y-72716641D01*
%TO.N,/AO1*%
X146506181Y-52533801D02*
X146506181Y-58688221D01*
X145331180Y-51358800D02*
X146506181Y-52533801D01*
X146506181Y-58688221D02*
X149397720Y-61579760D01*
X149397720Y-61579760D02*
X149397720Y-81307940D01*
X149397720Y-81307940D02*
X144038320Y-86667340D01*
X144038320Y-100462080D02*
X146740880Y-103164640D01*
X144038320Y-86667340D02*
X144038320Y-100462080D01*
%TO.N,/AO0*%
X153365200Y-52715160D02*
X153365200Y-96997520D01*
X152008840Y-51358800D02*
X153365200Y-52715160D01*
X147871180Y-51358800D02*
X152008840Y-51358800D01*
X152278080Y-98084640D02*
X146740880Y-98084640D01*
X153365200Y-96997520D02*
X152278080Y-98084640D01*
%TO.N,/3.3V*%
X148365881Y-72036341D02*
X146740880Y-70411340D01*
X148365881Y-81351341D02*
X148365881Y-72036341D01*
X143588310Y-86128912D02*
X148365881Y-81351341D01*
X147915871Y-122813699D02*
X147915871Y-106744633D01*
X143588310Y-102417072D02*
X143588310Y-86128912D01*
X147915871Y-106744633D02*
X143588310Y-102417072D01*
X101089890Y-54810230D02*
X101089890Y-121337360D01*
X102001320Y-53898800D02*
X101089890Y-54810230D01*
X107231180Y-53898800D02*
X102001320Y-53898800D01*
X104771895Y-125019365D02*
X105057920Y-125305390D01*
X144255780Y-126473790D02*
X145731795Y-124997775D01*
X145731795Y-124997775D02*
X147915871Y-122813699D01*
X145424180Y-125305390D02*
X145731795Y-124997775D01*
X106226320Y-126473790D02*
X102353815Y-122601285D01*
X107709130Y-126473790D02*
X106226320Y-126473790D01*
X101089890Y-121337360D02*
X102353815Y-122601285D01*
X102353815Y-122601285D02*
X104771895Y-125019365D01*
X107411090Y-126473790D02*
X107709130Y-126473790D01*
X107709130Y-126473790D02*
X144255780Y-126473790D01*
%TO.N,/A1*%
X121544080Y-65671700D02*
X109771180Y-53898800D01*
X121544080Y-98402140D02*
X121544080Y-65671700D01*
X121544080Y-108839000D02*
X121544080Y-98402140D01*
X117582198Y-109617920D02*
X120765160Y-109617920D01*
X115654521Y-111545597D02*
X117582198Y-109617920D01*
X115654520Y-114970200D02*
X115654521Y-111545597D01*
X118229737Y-117545419D02*
X115654520Y-114970200D01*
X120751562Y-117545420D02*
X118229737Y-117545419D01*
X120765160Y-109617920D02*
X121544080Y-108839000D01*
X121984540Y-118778398D02*
X120751562Y-117545420D01*
X121984540Y-122120400D02*
X121984540Y-118778398D01*
%TO.N,/A2*%
X127114570Y-68702190D02*
X112311180Y-53898800D01*
X127114570Y-98402140D02*
X127114570Y-68702190D01*
X127114570Y-110075710D02*
X127114570Y-98402140D01*
X126672340Y-110517940D02*
X127114570Y-110075710D01*
X117954998Y-110517940D02*
X126672340Y-110517940D01*
X116554539Y-111918399D02*
X117954998Y-110517940D01*
X116554539Y-114597401D02*
X116554539Y-111918399D01*
X118602539Y-116645401D02*
X116554539Y-114597401D01*
X123658341Y-116645401D02*
X118602539Y-116645401D01*
X124754540Y-117741600D02*
X123658341Y-116645401D01*
X124754540Y-122120400D02*
X124754540Y-117741600D01*
%TO.N,Net-(R1-Pad2)*%
X124414280Y-98456940D02*
X124469080Y-98402140D01*
X124414280Y-109347000D02*
X124414280Y-98456940D01*
X123693350Y-110067930D02*
X124414280Y-109347000D01*
X117768598Y-110067930D02*
X123693350Y-110067930D01*
X116104530Y-111731998D02*
X117768598Y-110067930D01*
X116104529Y-114783801D02*
X116104530Y-111731998D01*
X118416138Y-117095410D02*
X116104529Y-114783801D01*
X121184551Y-117095411D02*
X118416138Y-117095410D01*
X123369540Y-119280400D02*
X121184551Y-117095411D01*
%TO.N,Net-(R2-Pad2)*%
X126139540Y-119280400D02*
X126139540Y-117756340D01*
X126139540Y-117756340D02*
X127088900Y-116806980D01*
X136284962Y-116806980D02*
X138551920Y-114540022D01*
X127088900Y-116806980D02*
X136284962Y-116806980D01*
X138551920Y-111975778D02*
X137020422Y-110444280D01*
X138551920Y-114540022D02*
X138551920Y-111975778D01*
X137020422Y-110444280D02*
X131056380Y-110444280D01*
X130039570Y-109427470D02*
X130039570Y-98402140D01*
X131056380Y-110444280D02*
X130039570Y-109427470D01*
%TO.N,Net-(R3-Pad2)*%
X130482942Y-117706998D02*
X128909540Y-119280400D01*
X136657762Y-117706998D02*
X130482942Y-117706998D01*
X139451939Y-114912823D02*
X136657762Y-117706998D01*
X139451938Y-111602978D02*
X139451939Y-114912823D01*
X137393223Y-109544261D02*
X139451938Y-111602978D01*
X136528400Y-109544260D02*
X137393223Y-109544261D01*
X135610060Y-108625920D02*
X136528400Y-109544260D01*
X135610060Y-98402140D02*
X135610060Y-108625920D01*
%TD*%
M02*
