%TF.GenerationSoftware,KiCad,Pcbnew,(5.1.9)-1*%
%TF.CreationDate,2021-06-09T13:11:05-04:00*%
%TF.ProjectId,encoder signal conditioner_rev7,656e636f-6465-4722-9073-69676e616c20,rev?*%
%TF.SameCoordinates,Original*%
%TF.FileFunction,Paste,Top*%
%TF.FilePolarity,Positive*%
%FSLAX46Y46*%
G04 Gerber Fmt 4.6, Leading zero omitted, Abs format (unit mm)*
G04 Created by KiCad (PCBNEW (5.1.9)-1) date 2021-06-09 13:11:05*
%MOMM*%
%LPD*%
G01*
G04 APERTURE LIST*
G04 APERTURE END LIST*
%TO.C,120*%
G36*
G01*
X124302820Y-104991062D02*
X124302820Y-103741058D01*
G75*
G02*
X124552818Y-103491060I249998J0D01*
G01*
X125177822Y-103491060D01*
G75*
G02*
X125427820Y-103741058I0J-249998D01*
G01*
X125427820Y-104991062D01*
G75*
G02*
X125177822Y-105241060I-249998J0D01*
G01*
X124552818Y-105241060D01*
G75*
G02*
X124302820Y-104991062I0J249998D01*
G01*
G37*
G36*
G01*
X121377820Y-104991062D02*
X121377820Y-103741058D01*
G75*
G02*
X121627818Y-103491060I249998J0D01*
G01*
X122252822Y-103491060D01*
G75*
G02*
X122502820Y-103741058I0J-249998D01*
G01*
X122502820Y-104991062D01*
G75*
G02*
X122252822Y-105241060I-249998J0D01*
G01*
X121627818Y-105241060D01*
G75*
G02*
X121377820Y-104991062I0J249998D01*
G01*
G37*
%TD*%
%TO.C,120*%
G36*
G01*
X129873310Y-104991062D02*
X129873310Y-103741058D01*
G75*
G02*
X130123308Y-103491060I249998J0D01*
G01*
X130748312Y-103491060D01*
G75*
G02*
X130998310Y-103741058I0J-249998D01*
G01*
X130998310Y-104991062D01*
G75*
G02*
X130748312Y-105241060I-249998J0D01*
G01*
X130123308Y-105241060D01*
G75*
G02*
X129873310Y-104991062I0J249998D01*
G01*
G37*
G36*
G01*
X126948310Y-104991062D02*
X126948310Y-103741058D01*
G75*
G02*
X127198308Y-103491060I249998J0D01*
G01*
X127823312Y-103491060D01*
G75*
G02*
X128073310Y-103741058I0J-249998D01*
G01*
X128073310Y-104991062D01*
G75*
G02*
X127823312Y-105241060I-249998J0D01*
G01*
X127198308Y-105241060D01*
G75*
G02*
X126948310Y-104991062I0J249998D01*
G01*
G37*
%TD*%
%TO.C,120*%
G36*
G01*
X135443800Y-104955502D02*
X135443800Y-103705498D01*
G75*
G02*
X135693798Y-103455500I249998J0D01*
G01*
X136318802Y-103455500D01*
G75*
G02*
X136568800Y-103705498I0J-249998D01*
G01*
X136568800Y-104955502D01*
G75*
G02*
X136318802Y-105205500I-249998J0D01*
G01*
X135693798Y-105205500D01*
G75*
G02*
X135443800Y-104955502I0J249998D01*
G01*
G37*
G36*
G01*
X132518800Y-104955502D02*
X132518800Y-103705498D01*
G75*
G02*
X132768798Y-103455500I249998J0D01*
G01*
X133393802Y-103455500D01*
G75*
G02*
X133643800Y-103705498I0J-249998D01*
G01*
X133643800Y-104955502D01*
G75*
G02*
X133393802Y-105205500I-249998J0D01*
G01*
X132768798Y-105205500D01*
G75*
G02*
X132518800Y-104955502I0J249998D01*
G01*
G37*
%TD*%
%TO.C,R7*%
G36*
G01*
X107794760Y-103278778D02*
X107794760Y-104528782D01*
G75*
G02*
X107544762Y-104778780I-249998J0D01*
G01*
X106919758Y-104778780D01*
G75*
G02*
X106669760Y-104528782I0J249998D01*
G01*
X106669760Y-103278778D01*
G75*
G02*
X106919758Y-103028780I249998J0D01*
G01*
X107544762Y-103028780D01*
G75*
G02*
X107794760Y-103278778I0J-249998D01*
G01*
G37*
G36*
G01*
X110719760Y-103278778D02*
X110719760Y-104528782D01*
G75*
G02*
X110469762Y-104778780I-249998J0D01*
G01*
X109844758Y-104778780D01*
G75*
G02*
X109594760Y-104528782I0J249998D01*
G01*
X109594760Y-103278778D01*
G75*
G02*
X109844758Y-103028780I249998J0D01*
G01*
X110469762Y-103028780D01*
G75*
G02*
X110719760Y-103278778I0J-249998D01*
G01*
G37*
%TD*%
%TO.C,R8*%
G36*
G01*
X107789140Y-100157118D02*
X107789140Y-101407122D01*
G75*
G02*
X107539142Y-101657120I-249998J0D01*
G01*
X106914138Y-101657120D01*
G75*
G02*
X106664140Y-101407122I0J249998D01*
G01*
X106664140Y-100157118D01*
G75*
G02*
X106914138Y-99907120I249998J0D01*
G01*
X107539142Y-99907120D01*
G75*
G02*
X107789140Y-100157118I0J-249998D01*
G01*
G37*
G36*
G01*
X110714140Y-100157118D02*
X110714140Y-101407122D01*
G75*
G02*
X110464142Y-101657120I-249998J0D01*
G01*
X109839138Y-101657120D01*
G75*
G02*
X109589140Y-101407122I0J249998D01*
G01*
X109589140Y-100157118D01*
G75*
G02*
X109839138Y-99907120I249998J0D01*
G01*
X110464142Y-99907120D01*
G75*
G02*
X110714140Y-100157118I0J-249998D01*
G01*
G37*
%TD*%
%TO.C,R9*%
G36*
G01*
X114831700Y-101407122D02*
X114831700Y-100157118D01*
G75*
G02*
X115081698Y-99907120I249998J0D01*
G01*
X115706702Y-99907120D01*
G75*
G02*
X115956700Y-100157118I0J-249998D01*
G01*
X115956700Y-101407122D01*
G75*
G02*
X115706702Y-101657120I-249998J0D01*
G01*
X115081698Y-101657120D01*
G75*
G02*
X114831700Y-101407122I0J249998D01*
G01*
G37*
G36*
G01*
X111906700Y-101407122D02*
X111906700Y-100157118D01*
G75*
G02*
X112156698Y-99907120I249998J0D01*
G01*
X112781702Y-99907120D01*
G75*
G02*
X113031700Y-100157118I0J-249998D01*
G01*
X113031700Y-101407122D01*
G75*
G02*
X112781702Y-101657120I-249998J0D01*
G01*
X112156698Y-101657120D01*
G75*
G02*
X111906700Y-101407122I0J249998D01*
G01*
G37*
%TD*%
%TO.C,R10*%
G36*
G01*
X114852020Y-104528782D02*
X114852020Y-103278778D01*
G75*
G02*
X115102018Y-103028780I249998J0D01*
G01*
X115727022Y-103028780D01*
G75*
G02*
X115977020Y-103278778I0J-249998D01*
G01*
X115977020Y-104528782D01*
G75*
G02*
X115727022Y-104778780I-249998J0D01*
G01*
X115102018Y-104778780D01*
G75*
G02*
X114852020Y-104528782I0J249998D01*
G01*
G37*
G36*
G01*
X111927020Y-104528782D02*
X111927020Y-103278778D01*
G75*
G02*
X112177018Y-103028780I249998J0D01*
G01*
X112802022Y-103028780D01*
G75*
G02*
X113052020Y-103278778I0J-249998D01*
G01*
X113052020Y-104528782D01*
G75*
G02*
X112802022Y-104778780I-249998J0D01*
G01*
X112177018Y-104778780D01*
G75*
G02*
X111927020Y-104528782I0J249998D01*
G01*
G37*
%TD*%
%TO.C,270*%
G36*
G01*
X107059300Y-89042402D02*
X107059300Y-87792398D01*
G75*
G02*
X107309298Y-87542400I249998J0D01*
G01*
X107934302Y-87542400D01*
G75*
G02*
X108184300Y-87792398I0J-249998D01*
G01*
X108184300Y-89042402D01*
G75*
G02*
X107934302Y-89292400I-249998J0D01*
G01*
X107309298Y-89292400D01*
G75*
G02*
X107059300Y-89042402I0J249998D01*
G01*
G37*
G36*
G01*
X104134300Y-89042402D02*
X104134300Y-87792398D01*
G75*
G02*
X104384298Y-87542400I249998J0D01*
G01*
X105009302Y-87542400D01*
G75*
G02*
X105259300Y-87792398I0J-249998D01*
G01*
X105259300Y-89042402D01*
G75*
G02*
X105009302Y-89292400I-249998J0D01*
G01*
X104384298Y-89292400D01*
G75*
G02*
X104134300Y-89042402I0J249998D01*
G01*
G37*
%TD*%
M02*
