%TF.GenerationSoftware,KiCad,Pcbnew,(5.1.9)-1*%
%TF.CreationDate,2021-06-09T13:11:03-04:00*%
%TF.ProjectId,encoder signal conditioner_rev7,656e636f-6465-4722-9073-69676e616c20,rev?*%
%TF.SameCoordinates,Original*%
%TF.FileFunction,Plated,1,4,PTH,Drill*%
%TF.FilePolarity,Positive*%
%FSLAX46Y46*%
G04 Gerber Fmt 4.6, Leading zero omitted, Abs format (unit mm)*
G04 Created by KiCad (PCBNEW (5.1.9)-1) date 2021-06-09 13:11:03*
%MOMM*%
%LPD*%
G01*
G04 APERTURE LIST*
%TA.AperFunction,ComponentDrill*%
%ADD10C,0.889000*%
%TD*%
%TA.AperFunction,ComponentDrill*%
%ADD11C,1.000000*%
%TD*%
%TA.AperFunction,ComponentDrill*%
%ADD12C,1.016000*%
%TD*%
%TA.AperFunction,ComponentDrill*%
%ADD13C,1.190000*%
%TD*%
%TA.AperFunction,ComponentDrill*%
%ADD14C,1.200000*%
%TD*%
%TA.AperFunction,ComponentDrill*%
%ADD15C,1.300000*%
%TD*%
%TA.AperFunction,ComponentDrill*%
%ADD16C,1.651000*%
%TD*%
G04 APERTURE END LIST*
D10*
%TO.C,J1*%
X106908600Y-73101200D03*
X108178600Y-70561200D03*
X109448600Y-73101200D03*
X110718600Y-70561200D03*
X111988600Y-73101200D03*
X113258600Y-70561200D03*
X114528600Y-73101200D03*
X115798600Y-70561200D03*
D11*
%TO.C,J3*%
X107231180Y-51358800D03*
X107231180Y-53898800D03*
X109771180Y-51358800D03*
X109771180Y-53898800D03*
X112311180Y-51358800D03*
X112311180Y-53898800D03*
X114851180Y-51358800D03*
X114851180Y-53898800D03*
X117391180Y-51358800D03*
X117391180Y-53898800D03*
X119931180Y-51358800D03*
X119931180Y-53898800D03*
X122471180Y-51358800D03*
X122471180Y-53898800D03*
X125011180Y-51358800D03*
X125011180Y-53898800D03*
X127551180Y-51358800D03*
X127551180Y-53898800D03*
X130091180Y-51358800D03*
X130091180Y-53898800D03*
X132631180Y-51358800D03*
X132631180Y-53898800D03*
X135171180Y-51358800D03*
X135171180Y-53898800D03*
X137711180Y-51358800D03*
X137711180Y-53898800D03*
X140251180Y-51358800D03*
X140251180Y-53898800D03*
X142791180Y-51358800D03*
X142791180Y-53898800D03*
X145331180Y-51358800D03*
X145331180Y-53898800D03*
X147871180Y-51358800D03*
X147871180Y-53898800D03*
D12*
%TO.C,J1*%
X105029000Y-83566000D03*
X107543600Y-83566000D03*
X115138200Y-83566000D03*
X117652800Y-83566000D03*
D13*
%TO.C,J2*%
X105008600Y-94714060D03*
X107548600Y-94714060D03*
X110088600Y-94714060D03*
X112628600Y-94714060D03*
X115168600Y-94714060D03*
X117708600Y-94714060D03*
D14*
%TO.C,U1*%
X117829540Y-112530400D03*
X117829540Y-119280400D03*
X119214540Y-115370400D03*
X119214540Y-122120400D03*
X120599540Y-112530400D03*
X120599540Y-119280400D03*
X121984540Y-115370400D03*
X121984540Y-122120400D03*
X123369540Y-112530400D03*
X123369540Y-119280400D03*
X124754540Y-115370400D03*
X124754540Y-122120400D03*
X126139540Y-112530400D03*
X126139540Y-119280400D03*
X127524540Y-115370400D03*
X127524540Y-122120400D03*
X128909540Y-112530400D03*
X128909540Y-119280400D03*
X130294540Y-115370400D03*
X130294540Y-122120400D03*
X131679540Y-112530400D03*
X131679540Y-119280400D03*
X133064540Y-115370400D03*
X133064540Y-122120400D03*
X134449540Y-112530400D03*
X134449540Y-119280400D03*
X135834540Y-115370400D03*
X135834540Y-122120400D03*
X137219540Y-112530400D03*
X137219540Y-119280400D03*
D15*
%TO.C,J4*%
X146740880Y-65331340D03*
X146740880Y-70411340D03*
X146740880Y-75491340D03*
X146740880Y-80571340D03*
%TO.C,J5*%
X146740880Y-87924640D03*
X146740880Y-93004640D03*
X146740880Y-98084640D03*
X146740880Y-103164640D03*
D16*
%TO.C,J1*%
X103479600Y-75565000D03*
X119227600Y-75565000D03*
M02*
