%TF.GenerationSoftware,KiCad,Pcbnew,(5.1.9)-1*%
%TF.CreationDate,2021-06-09T13:11:05-04:00*%
%TF.ProjectId,encoder signal conditioner_rev7,656e636f-6465-4722-9073-69676e616c20,rev?*%
%TF.SameCoordinates,Original*%
%TF.FileFunction,Paste,Bot*%
%TF.FilePolarity,Positive*%
%FSLAX46Y46*%
G04 Gerber Fmt 4.6, Leading zero omitted, Abs format (unit mm)*
G04 Created by KiCad (PCBNEW (5.1.9)-1) date 2021-06-09 13:11:05*
%MOMM*%
%LPD*%
G01*
G04 APERTURE LIST*
G04 APERTURE END LIST*
%TO.C,120*%
G36*
G01*
X120981580Y-99027142D02*
X120981580Y-97777138D01*
G75*
G02*
X121231578Y-97527140I249998J0D01*
G01*
X121856582Y-97527140D01*
G75*
G02*
X122106580Y-97777138I0J-249998D01*
G01*
X122106580Y-99027142D01*
G75*
G02*
X121856582Y-99277140I-249998J0D01*
G01*
X121231578Y-99277140D01*
G75*
G02*
X120981580Y-99027142I0J249998D01*
G01*
G37*
G36*
G01*
X123906580Y-99027142D02*
X123906580Y-97777138D01*
G75*
G02*
X124156578Y-97527140I249998J0D01*
G01*
X124781582Y-97527140D01*
G75*
G02*
X125031580Y-97777138I0J-249998D01*
G01*
X125031580Y-99027142D01*
G75*
G02*
X124781582Y-99277140I-249998J0D01*
G01*
X124156578Y-99277140D01*
G75*
G02*
X123906580Y-99027142I0J249998D01*
G01*
G37*
%TD*%
%TO.C,120*%
G36*
G01*
X129477070Y-99027142D02*
X129477070Y-97777138D01*
G75*
G02*
X129727068Y-97527140I249998J0D01*
G01*
X130352072Y-97527140D01*
G75*
G02*
X130602070Y-97777138I0J-249998D01*
G01*
X130602070Y-99027142D01*
G75*
G02*
X130352072Y-99277140I-249998J0D01*
G01*
X129727068Y-99277140D01*
G75*
G02*
X129477070Y-99027142I0J249998D01*
G01*
G37*
G36*
G01*
X126552070Y-99027142D02*
X126552070Y-97777138D01*
G75*
G02*
X126802068Y-97527140I249998J0D01*
G01*
X127427072Y-97527140D01*
G75*
G02*
X127677070Y-97777138I0J-249998D01*
G01*
X127677070Y-99027142D01*
G75*
G02*
X127427072Y-99277140I-249998J0D01*
G01*
X126802068Y-99277140D01*
G75*
G02*
X126552070Y-99027142I0J249998D01*
G01*
G37*
%TD*%
%TO.C,120*%
G36*
G01*
X135047560Y-99027142D02*
X135047560Y-97777138D01*
G75*
G02*
X135297558Y-97527140I249998J0D01*
G01*
X135922562Y-97527140D01*
G75*
G02*
X136172560Y-97777138I0J-249998D01*
G01*
X136172560Y-99027142D01*
G75*
G02*
X135922562Y-99277140I-249998J0D01*
G01*
X135297558Y-99277140D01*
G75*
G02*
X135047560Y-99027142I0J249998D01*
G01*
G37*
G36*
G01*
X132122560Y-99027142D02*
X132122560Y-97777138D01*
G75*
G02*
X132372558Y-97527140I249998J0D01*
G01*
X132997562Y-97527140D01*
G75*
G02*
X133247560Y-97777138I0J-249998D01*
G01*
X133247560Y-99027142D01*
G75*
G02*
X132997562Y-99277140I-249998J0D01*
G01*
X132372558Y-99277140D01*
G75*
G02*
X132122560Y-99027142I0J249998D01*
G01*
G37*
%TD*%
M02*
